<svg width="24" height="23" viewBox="0 0 24 23" fill="none" xmlns="http://www.w3.org/2000/svg">
<path d="M2 10.0947C1.17157 10.0947 0.5 10.7663 0.5 11.5947C0.5 12.4232 1.17157 13.0947 2 13.0947L2 10.0947ZM23.0607 12.6554C23.6464 12.0696 23.6464 11.1199 23.0607 10.5341L13.5147 0.988127C12.9289 0.40234 11.9792 0.40234 11.3934 0.988126C10.8076 1.57391 10.8076 2.52366 11.3934 3.10945L19.8787 11.5947L11.3934 20.08C10.8076 20.6658 10.8076 21.6155 11.3934 22.2013C11.9792 22.7871 12.9289 22.7871 13.5147 22.2013L23.0607 12.6554ZM2 13.0947L22 13.0947L22 10.0947L2 10.0947L2 13.0947Z" fill="white"/>
</svg>
